<svg width="2307" height="536" viewBox="0 0 2307 536" fill="none" xmlns="http://www.w3.org/2000/svg">
<path d="M143.284 487.746C117.62 487.746 93.9666 483.245 72.3243 474.243C50.682 465.05 33.349 451.069 20.3253 432.299C7.30162 413.53 0.78978 389.877 0.78978 361.339V356.456H90.9979V361.339C90.9979 378.385 95.786 391.696 105.362 401.272C114.939 410.657 127.579 415.349 143.284 415.349C178.142 415.349 195.57 394.473 195.57 352.721V53.9422H284.917V352.721C284.917 394.09 272.18 426.937 246.708 451.26C221.235 475.584 186.76 487.746 143.284 487.746ZM676.581 53.9422H766.789V331.462C766.789 362.68 759.415 390.068 744.668 413.626C729.921 436.992 709.236 455.187 682.614 468.21C655.992 481.234 624.965 487.746 589.533 487.746C553.909 487.746 522.787 481.234 496.165 468.21C469.734 455.187 449.145 436.992 434.398 413.626C419.651 390.068 412.277 362.68 412.277 331.462V53.9422H502.485V323.992C502.485 348.507 510.433 368.713 526.33 384.61C542.226 400.315 563.294 408.167 589.533 408.167C615.772 408.167 636.84 400.315 652.736 384.61C668.633 368.713 676.581 348.507 676.581 323.992V53.9422ZM894.436 482V53.9422H984.645V407.305H1168.22V482H894.436ZM1372 53.9422V482H1281.79V53.9422H1372ZM1763.95 53.9422H1854.16V331.462C1854.16 362.68 1846.79 390.068 1832.04 413.626C1817.29 436.992 1796.61 455.187 1769.98 468.21C1743.36 481.234 1712.34 487.746 1676.9 487.746C1641.28 487.746 1610.16 481.234 1583.53 468.21C1557.1 455.187 1536.52 436.992 1521.77 413.626C1507.02 390.068 1499.65 362.68 1499.65 331.462V53.9422H1589.86V323.992C1589.86 348.507 1597.8 368.713 1613.7 384.61C1629.6 400.315 1650.66 408.167 1676.9 408.167C1703.14 408.167 1724.21 400.315 1740.11 384.61C1756 368.713 1763.95 348.507 1763.95 323.992V53.9422ZM2123.15 535.435V487.458C2076.23 484.969 2038.88 471.945 2011.11 448.387C1983.34 424.83 1968.88 391.217 1967.73 347.55H2055.35C2056.69 366.511 2063.49 381.354 2075.75 392.079C2088.01 402.613 2103.81 409.029 2123.15 411.327V301.584L2095.57 294.689C2059.57 286.07 2031.12 272.376 2010.25 253.607C1989.56 234.646 1979.22 209.365 1979.22 177.763C1979.22 153.631 1985.35 132.276 1997.61 113.698C2009.86 95.1201 2026.81 80.1811 2048.46 68.8812C2070.1 57.5812 2095 50.8778 2123.15 48.7711V0.506843H2157.34V48.7711C2186.07 50.6863 2211.06 57.2939 2232.32 68.5939C2253.77 79.7023 2270.43 94.6412 2282.31 113.411C2294.18 131.989 2300.31 153.152 2300.7 176.901H2213.36C2210.49 146.832 2191.81 129.499 2157.34 124.902V228.9L2177.74 234.071C2202.63 239.625 2224.76 247.765 2244.1 258.491C2263.44 269.025 2278.67 282.623 2289.78 299.285C2300.89 315.757 2306.44 335.867 2306.44 359.616C2306.44 396.771 2293.32 426.745 2267.08 449.537C2240.84 472.328 2204.26 484.969 2157.34 487.458V535.435H2123.15ZM2072.01 172.017C2072.01 184.849 2076.9 195 2086.67 202.47C2096.43 209.939 2108.6 215.876 2123.15 220.281V124.902C2106.68 127.2 2094.04 132.659 2085.23 141.278C2076.42 149.896 2072.01 160.143 2072.01 172.017ZM2215.37 359.328C2215.37 346.496 2210.3 336.441 2200.14 329.163C2190.19 321.694 2175.92 315.373 2157.34 310.202V411.04C2175.15 408.55 2189.23 402.709 2199.57 393.516C2210.1 384.322 2215.37 372.927 2215.37 359.328Z" fill="url(#paint0_linear_1190_2)"/>
<defs>
<linearGradient id="paint0_linear_1190_2" x1="1158.5" y1="-236" x2="1268" y2="936.5" gradientUnits="userSpaceOnUse">
<stop offset="0.149665" stop-color="#C8B479"/>
<stop offset="0.586538" stop-color="#C5A35B"/>
<stop offset="0.978336" stop-color="#C29440"/>
</linearGradient>
</defs>
</svg>
