<svg width="638" height="638" viewBox="0 0 638 638" fill="none" xmlns="http://www.w3.org/2000/svg">
<path fill-rule="evenodd" clip-rule="evenodd" d="M237.626 42.2403C277.506 -13.5944 360.489 -13.5944 400.373 42.2403L406.723 51.1293C413.739 60.9559 425.526 66.2176 437.526 64.8843L465.826 61.7396C529.519 54.6629 583.336 108.48 576.259 172.171L573.116 200.472C571.783 212.474 577.043 224.258 586.869 231.277L595.759 237.627C651.593 277.507 651.593 360.49 595.759 400.374L586.869 406.724C577.043 413.74 571.783 425.527 573.116 437.527L576.259 465.827C583.336 529.52 529.519 583.337 465.826 576.26L437.526 573.117C425.526 571.784 413.739 577.044 406.723 586.87L400.373 595.76C360.489 651.594 277.509 651.594 237.626 595.76L231.276 586.87C224.257 577.044 212.473 571.784 200.471 573.117L172.17 576.26C108.479 583.337 54.6619 529.52 61.7386 465.827L64.8833 437.527C66.2166 425.527 60.955 413.74 51.1283 406.724L42.2393 400.374C-13.5954 360.49 -13.5954 277.51 42.2393 237.627L51.1283 231.277C60.955 224.258 66.2166 212.474 64.8833 200.472L61.7386 172.171C54.6619 108.48 108.479 54.6629 172.17 61.7396L200.471 64.8843C212.473 66.2176 224.257 60.9559 231.276 51.1293L237.626 42.2403ZM442.569 228.763C455.586 241.781 455.586 262.887 442.569 275.904L315.273 403.2C298.923 419.554 272.409 419.554 256.059 403.2L195.429 342.57C182.412 329.554 182.412 308.447 195.429 295.43C208.447 282.414 229.552 282.414 242.57 295.43L285.666 338.527L395.429 228.763C408.446 215.746 429.553 215.746 442.569 228.763Z" fill="#FDC700"/>
</svg>
